<?xml version="1.0" encoding="UTF-8"?>
<!DOCTYPE svg PUBLIC "-//W3C//DTD SVG 1.1//EN" "http://www.w3.org/Graphics/SVG/1.1/DTD/svg11.dtd">
<!-- Creator: CorelDRAW (Deneme Sürümü) -->
<svg xmlns="http://www.w3.org/2000/svg" xml:space="preserve" width="297mm" height="210mm" version="1.1" style="shape-rendering:geometricPrecision; text-rendering:geometricPrecision; image-rendering:optimizeQuality; fill-rule:evenodd; clip-rule:evenodd"
viewBox="0 0 29700 21000"
 xmlns:xlink="http://www.w3.org/1999/xlink"
 xmlns:xodm="http://www.corel.com/coreldraw/odm/2003">
 <defs>
  <style type="text/css">
   <![CDATA[
    .str0 {stroke:#1C1C1C;stroke-width:500;stroke-miterlimit:22.9256}
    .fil2 {fill:none;fill-rule:nonzero}
    .fil0 {fill:#1C1C1C}
    .fil1 {fill:#1C1C1C;fill-rule:nonzero}
   ]]>
  </style>
 </defs>
 <g id="Katman_x0020_1">
  <metadata id="CorelCorpID_0Corel-Layer"/>
  <g id="_2032143846288">
   <path class="fil0" d="M21561.27 8019.11l3915.62 0 75.3 1463.38 -135.54 0c-210.84,-497.64 -431.75,-838.84 -662.66,-1023.61 -230.91,-184.78 -569.78,-277.16 -1016.56,-277.16l-263.54 -0.01 0 2283.77 256.03 0c235.95,0 434.22,-87.46 594.85,-262.37 160.68,-174.93 273.59,-410.19 338.86,-705.83l112.94 0 0 2187.66 -127.97 0c-90.39,-369.54 -212.14,-633.13 -365.24,-790.8 -153.08,-157.68 -362.7,-236.5 -628.76,-236.5l-180.71 0 0 2372.44 286.17 0c461.84,0 854.62,-135.5 1178.41,-406.49 323.82,-271.01 545.92,-618.37 666.4,-1042.11l150.63 0 -60.25 1611.18 -4133.98 0 0 -162.58 444.29 0 0 -4848.37 -444.29 0 0 -162.6z"/>
   <polygon class="fil0" points="20724.42,8159.53 20724.42,13192.66 19670.21,13192.66 17087.41,8410.83 17087.41,13052.24 17501.56,13052.24 17501.56,13192.66 16469.96,13192.66 16469.96,13052.24 16884.1,13052.24 16884.1,8159.53 16469.96,8159.53 16469.96,8019.11 18548.25,8019.11 20521.11,11729.28 20521.11,8159.53 20106.97,8159.53 20106.97,8019.11 21138.57,8019.11 21138.57,8159.53 "/>
   <path class="fil0" d="M13730.97 13266.58c-838.33,0 -1464.59,-222.95 -1878.74,-668.86 -414.14,-445.91 -621.23,-1091.37 -621.23,-1936.39 0.01,-845.01 222.14,-1510.18 666.41,-1995.51 444.27,-485.34 1073.02,-727.99 1886.27,-727.99 813.25,-0.01 1426.93,230.35 1841.08,691.03 414.16,460.69 621.23,1114.78 621.23,1962.26 0,847.46 -209.59,1505.25 -628.76,1973.34 -419.16,468.07 -1047.93,702.12 -1886.26,702.12zm963.85 -2357.66l0 -546.92c0,-901.67 -45.19,-1470.76 -135.56,-1707.26 -100.39,-271.01 -243.46,-438.53 -429.21,-502.58 -105.41,-39.44 -233.43,-59.13 -384.03,-59.13 -150.59,0 -279.86,19.71 -387.79,59.13 -107.93,39.4 -197.04,108.4 -267.32,206.94 -70.28,98.53 -126.75,202.02 -169.42,310.42 -42.66,108.4 -76.56,261.14 -101.65,458.23 -30.11,285.77 -45.18,707.05 -45.18,1263.82l0 532.12c0,601.12 23.84,1028.57 71.52,1282.31 47.7,253.75 106.68,434.83 176.97,543.23 155.62,241.43 396.58,362.15 722.87,362.15 396.6,-0.01 653.86,-163.84 771.82,-491.49 117.98,-327.66 176.96,-897.98 176.98,-1710.97z"/>
   <path class="fil0" d="M9237.5 8085.63c-778.11,0 -1167.17,736.63 -1167.17,2209.86l0.01 583.86c0,699.66 102.9,1247.82 308.72,1644.46 205.83,396.62 509.53,594.96 911.14,594.96 552.21,-0.02 1059.21,-527.21 1521.05,-1581.63l135.56 0 -52.72 1648.13 -82.82 0c-30.13,-54.19 -57.74,-92.37 -82.85,-114.54 -25.09,-22.18 -61.48,-33.26 -109.18,-33.26 -47.68,0 -229.67,38.18 -545.93,114.56 -316.25,76.36 -637.54,114.55 -963.83,114.55 -818.27,0 -1452.04,-216.79 -1901.33,-650.38 -449.29,-433.6 -673.94,-1085.22 -673.94,-1954.87 0.01,-869.66 234.69,-1540.97 704.06,-2013.98 469.37,-473.03 1100.64,-709.52 1893.8,-709.52 306.23,-0.01 606.16,38.19 899.83,114.56 293.69,76.35 465.6,114.55 515.8,114.55 50.21,0 87.86,-11.08 112.95,-33.25 25.12,-22.19 52.71,-60.36 82.83,-114.56l82.84 -0.02 60.24 1603.8 -135.54 0c-225.91,-497.64 -458.07,-878.25 -696.53,-1141.86 -238.45,-263.61 -510.78,-395.41 -816.99,-395.42z"/>
   <polygon class="fil0" points="4013.61,8019.11 6310.25,8019.11 6310.25,8159.53 5896.11,8159.53 5896.11,13052.24 6310.25,13052.24 6310.25,13192.66 4013.61,13192.66 4013.61,13052.24 4427.76,13052.24 4427.76,8159.53 4013.61,8159.53 "/>
   <path class="fil0" d="M16287.96 4407.37l1642.56 0 31.59 737.42 -56.86 0c-88.44,-250.77 -181.1,-422.71 -277.97,-515.82 -96.87,-93.11 -239.02,-139.66 -426.44,-139.66l-110.55 0 0 1150.82 107.4 0c98.98,0 182.15,-44.07 249.54,-132.21 67.39,-88.15 114.77,-206.7 142.14,-355.68l47.39 0 0 1102.39 -53.7 0c-37.9,-186.21 -88.98,-319.04 -153.21,-398.49 -64.21,-79.46 -152.14,-119.18 -263.75,-119.18l-75.81 0 0 1195.51 120.03 0c193.74,0 358.52,-68.28 494.35,-204.84 135.82,-136.56 229.01,-311.6 279.55,-525.13l63.18 0 -25.27 811.9 -1734.17 0 0 -81.93 186.37 0 0 -2443.16 -186.37 0 0 -81.94z"/>
   <polygon class="fil0" points="13880.3,4407.37 14865.84,4407.37 14865.84,4478.13 14682.63,4478.13 14682.63,5632.68 15311.23,5632.68 15311.23,4478.13 15124.86,4478.13 15124.86,4407.37 16113.55,4407.37 16113.55,4478.13 15927.19,4478.13 15927.19,6943.64 16113.55,6943.64 16113.55,7014.4 15124.86,7014.4 15124.86,6943.64 15311.23,6943.64 15311.23,5729.51 14682.63,5729.51 14682.63,6943.64 14865.84,6943.64 14865.84,7014.4 13880.3,7014.4 13880.3,6943.64 14066.67,6943.64 14066.67,4478.13 13880.3,4478.13 "/>
   <path class="fil0" d="M13616.97 4407.37l31.59 934.81 -60.02 0c-92.66,-330.22 -174.78,-555.54 -246.39,-675.96 -71.59,-120.43 -174.78,-180.63 -309.55,-180.63l-37.91 -0.01 0 2450.61 268.5 0 0 78.21 -1152.95 0 0 -78.21 268.5 0 0 -2450.61 -41.07 0c-134.78,0 -239.01,62.7 -312.72,188.09 -73.7,125.38 -154.78,348.22 -243.22,668.51l-60.02 0 31.59 -934.81 1863.67 0z"/>
   <path class="fil1" d="M4297.11 15068.28l447.14 0 0 563.13c20.1,-47.18 50.41,-85.14 90.92,-113.86 40.81,-28.97 102.66,-43.33 185.22,-43.33 192.03,0 287.89,85.65 287.89,256.94l0 463.38 104.21 0 0 27.69 -525.68 0 0 -27.69 76.07 0 0 -500.05c0,-61.54 -4.95,-101.29 -14.85,-118.98 -9.58,-18.21 -27.52,-27.18 -53.49,-27.18 -39.58,0 -74.53,21.54 -105.14,64.62 -29.99,43.08 -45.15,95.39 -45.15,156.94l0 424.65 79.78 0 0 27.69 -526.92 0 0 -27.69 102.05 0 0 -1098.56 -102.05 0 0 -27.7zm1588.19 792.13l53.8 0 0 -118.22c0,-97.44 -6.49,-162.84 -19.48,-196.17 -12.98,-33.34 -38.03,-50.01 -75.14,-50.01 -22.26,0 -42.36,4.88 -60.61,14.88 -17.93,9.74 -26.9,23.08 -26.9,40 0,16.67 3.71,33.85 11.44,51.29l46.08 0c10.2,21.54 15.15,47.44 15.15,77.7 0,30.26 -15.46,56.41 -46.69,78.47 -30.62,22.05 -69.58,33.08 -116.58,33.08 -106.69,0 -159.87,-42.57 -159.87,-127.71 0,-126.42 129.25,-189.5 387.77,-189.5 147.5,0 249.23,20.77 305.51,62.57 56.59,41.54 84.73,117.7 84.73,228.22l0 312.59c0,53.34 17.63,80.01 53.19,80.01 42.36,0 67.1,-52.82 74.52,-158.47l27.83 1.54c-4.95,90.52 -25.35,152.57 -61.53,186.17 -35.57,33.85 -94.32,50.77 -176.26,50.77 -148.12,0 -233.47,-37.95 -255.73,-113.86 -16.08,39.24 -40.2,67.96 -72.67,86.42 -31.85,18.21 -78.86,27.44 -140.7,27.44 -183.06,0 -274.59,-62.06 -274.59,-186.43 0,-72.57 34.94,-122.32 104.52,-149.75 70.19,-27.44 177.49,-41.03 322.21,-41.03zm-74.22 189.5c0,53.34 3.41,87.7 9.9,103.09 7.11,15.38 20.1,23.08 38.96,23.08 19.48,0 37.42,-13.08 53.81,-39.24 17,-26.16 25.35,-62.31 25.35,-108.47l0 -143.09 -12.98 0c-76.69,0 -115.04,46.67 -115.04,140.01l0 24.62zm920.26 -666.21c-65.55,0 -112.25,-13.85 -140.08,-41.29 -27.83,-27.69 -41.74,-62.06 -41.74,-103.09 0,-41.28 15.15,-75.13 45.46,-101.54 29.99,-26.93 76.06,-40.26 138.22,-40.26 61.84,0 108.85,12.05 140.7,36.15 32.47,24.11 48.55,58.47 48.55,103.35 0,44.36 -15.47,80 -46.7,106.93 -30.61,26.41 -78.85,39.75 -144.41,39.75zm-279.85 106.16l454.26 0 0 704.68 103.59 0 0 27.69 -550.73 0 0 -27.69 102.04 0 0 -676.99 -109.16 0 0 -27.69zm1214.95 43.08c-46.07,0 -86.27,24.62 -120.9,74.11 -34.33,48.98 -51.64,107.44 -51.64,175.4l0 412.09 131.73 0 0 27.69 -578.88 0 0 -27.69 102.05 0 0 -676.99 -102.05 0 0 -27.69 447.15 0 0 147.96c15.77,-52.31 46.69,-92.57 92.46,-121.04 45.76,-28.46 97.71,-42.56 155.85,-42.56 58.13,0 105.44,13.59 142.24,41.03 36.49,26.92 54.73,65.39 54.73,115.39 0,49.75 -13.6,87.96 -40.81,114.88 -27.22,26.42 -68.96,39.75 -125.55,39.75 -55.97,0 -97.41,-15.38 -124,-46.16 -26.6,-30.77 -30,-73.34 -9.9,-127.7l66.49 0c30.61,-52.31 17.62,-78.47 -38.97,-78.47zm1120.64 704.68c-159.56,0 -279.23,-34.11 -359.32,-102.06 -79.78,-68.47 -119.67,-163.35 -119.67,-284.9 0,-121.8 44.84,-214.89 134.52,-279.51 89.67,-64.62 203.78,-96.93 342.62,-96.93 280.78,0 415.6,116.93 404.47,351.06l-523.21 0 0 60c0,100.27 15.46,176.17 46.07,227.71 31.23,51.29 85.04,76.93 161.73,76.93 143.48,0 237.48,-63.59 282.01,-190.78l33.4 4.36c-23.5,74.1 -65.87,131.55 -127.41,172.58 -60.91,41.03 -152.75,61.54 -275.21,61.54zm-118.74 -443.12l191.1 0 0 -75.13c0,-83.34 -5.87,-140.02 -17.62,-170.27 -11.75,-30.26 -35.25,-45.39 -70.82,-45.39 -34.94,0 -60.91,16.15 -77.92,48.46 -16.39,32.31 -24.74,87.96 -24.74,167.2l0 75.13zm1185.58 -26.15l219.24 -250.8 -133.59 0 0 -27.69 276.14 0 0 27.69 -96.48 0 -241.5 283.11 302.73 393.88 96.48 0 0 27.69 -619.69 0 0 -27.69 131.73 0 -204.09 -276.95 -211.82 276.95 122.76 0 0 27.69 -290.98 0 0 -27.69 122.14 0 235.63 -307.72 -281.7 -369.27 -107.92 0 0 -27.69 626.8 0 0 27.69 -129.57 0 183.69 250.8zm534.34 233.86l0 -484.66 -102.35 0 0 -27.69 102.35 0 0 -198.48 345.4 -70.52 0 269 240.89 0 0 27.69 -240.89 0 0 518.26c0,48.46 5.57,83.85 17.01,106.42 11.75,22.56 36.18,33.85 73.6,33.85 37.11,0 69.57,-15.39 97.1,-46.16 28.14,-31.03 46.69,-73.08 55.04,-126.42l31.54 3.59c-9.9,70.51 -37.11,126.67 -81.95,168.22 -44.22,41.54 -117.81,62.31 -220.48,62.31 -102.66,0 -181.2,-16.92 -235.63,-50.77 -54.42,-33.6 -81.63,-95.14 -81.63,-184.64zm1126.2 235.41c-159.56,0 -279.23,-34.11 -359.32,-102.06 -79.78,-68.47 -119.67,-163.35 -119.67,-284.9 0,-121.8 44.84,-214.89 134.51,-279.51 89.68,-64.62 203.78,-96.93 342.63,-96.93 280.78,0 415.6,116.93 404.47,351.06l-523.22 0 0 60c0,100.27 15.47,176.17 46.08,227.71 31.23,51.29 85.03,76.93 161.72,76.93 143.49,0 237.49,-63.59 282.02,-190.78l33.4 4.36c-23.51,74.1 -65.87,131.55 -127.41,172.58 -60.91,41.03 -152.76,61.54 -275.21,61.54zm-118.74 -443.12l191.1 0 0 -75.13c0,-83.34 -5.88,-140.02 -17.62,-170.27 -11.75,-30.26 -35.26,-45.39 -70.82,-45.39 -34.94,0 -60.92,16.15 -77.92,48.46 -16.39,32.31 -24.74,87.96 -24.74,167.2l0 75.13zm591.86 -304.64l447.14 0 0 141.55c19.79,-47.18 50.09,-85.14 90.91,-113.86 40.82,-28.97 102.66,-43.33 185.85,-43.33 191.41,0 286.96,85.65 286.96,256.94l0 463.38 104.21 0 0 27.69 -525.07 0 0 -27.69 76.38 0 0 -500.05c0,-61.54 -4.95,-101.29 -15.15,-118.98 -9.9,-18.21 -27.83,-27.18 -53.81,-27.18 -39.58,0 -74.52,21.54 -105.13,64.62 -30,43.08 -45.15,95.39 -45.15,156.94l0 424.65 79.47 0 0 27.69 -526.61 0 0 -27.69 101.73 0 0 -676.99 -101.73 0 0 -27.69zm1181.86 747.76l0 -275.41 22.26 0c32.16,89.24 75.46,151.81 129.88,187.97 54.43,35.64 122.45,53.59 204.4,53.59 125.86,0 188.63,-33.34 188.63,-99.75 0,-28.98 -15.46,-50.52 -46.08,-64.62 -48.24,-22.82 -110.08,-40.52 -185.84,-52.57 -83.8,-18.21 -154.31,-42.82 -211.51,-73.86 -67.72,-36.92 -101.74,-95.39 -101.74,-175.4 0,-80 29.69,-143.85 88.75,-191.55 59.37,-47.95 138.53,-71.8 237.79,-71.8 60.61,0 123.08,12.05 187.4,35.9 23.81,7.95 41.74,12.05 54.11,12.05 12.37,0 22.88,-3.59 31.23,-10.51 8.66,-7.44 19.17,-20.78 31.54,-40.26l20.41 0 0 235.4 -22.26 0c-63.09,-133.6 -160.8,-200.27 -292.84,-200.27 -58.44,0 -101.74,8.46 -130.18,25.64 -28.14,17.18 -42.37,38.47 -42.37,63.85 0,15.13 4.33,27.19 12.68,36.16 8.66,8.72 15.46,15.13 20.1,19.49 5.26,3.84 13.3,8.21 24.12,13.08 11.13,4.61 20.41,8.2 28.14,10.51 7.73,2.57 19.17,5.9 34.32,10.26 15.46,3.85 26.9,6.41 34.64,7.44 83.8,17.69 144.41,32.82 181.51,45.38 37.11,12.82 72.36,28.47 105.45,46.93 68.34,38.72 102.35,101.81 102.35,188.74 0,86.67 -30.92,152.32 -92.77,196.68 -61.84,44.62 -146.57,66.93 -254.18,66.93 -76.69,0 -150.9,-14.87 -222.64,-44.62 -14.84,-8.46 -26.59,-12.56 -35.56,-12.56 -26.91,0 -53.5,18.97 -79.48,57.18l-22.26 0zm1035.29 -853.92c-65.56,0 -112.25,-13.85 -140.08,-41.29 -27.83,-27.69 -41.74,-62.06 -41.74,-103.09 0,-41.28 15.15,-75.13 45.45,-101.54 30,-26.93 76.07,-40.26 138.23,-40.26 61.84,0 108.84,12.05 140.69,36.15 32.47,24.11 48.55,58.47 48.55,103.35 0,44.36 -15.46,80 -46.69,106.93 -30.62,26.41 -78.85,39.75 -144.41,39.75zm-279.85 106.16l454.26 0 0 704.68 103.59 0 0 27.69 -550.74 0 0 -27.69 102.05 0 0 -676.99 -109.16 0 0 -27.69zm1194.54 429.27l0 -130.78c0,-99.24 -6.49,-171.81 -19.48,-217.46 -12.99,-45.9 -42.98,-68.72 -89.98,-68.72 -27.22,0 -49.17,6.41 -65.87,19.23 -16.39,12.57 -28.45,33.85 -36.18,63.85 -11.13,46.42 -16.7,116.42 -16.7,210.54l0 120.26c0,111.55 4.02,178.99 11.75,201.82 8.04,22.56 16.39,41.03 25.36,55.13 13.61,24.62 40.2,36.93 79.78,36.93 48.24,0 79.78,-23.08 94.63,-69.24 11.13,-32.83 16.69,-106.68 16.69,-221.56zm-115.03 318.49c-154.61,0 -271.5,-32.82 -350.66,-98.47 -79.16,-65.65 -118.75,-159.76 -118.75,-282.08 0,-122.83 42.37,-217.2 127.1,-283.1 84.72,-66.42 203.78,-99.75 357.15,-99.75 153.38,0 267.79,30.51 342.93,91.8 75.46,61.03 113.18,154.12 113.18,279 0,261.82 -157.08,392.6 -470.95,392.6zm526.92 -747.76l447.14 0 0 141.55c19.8,-47.18 50.1,-85.14 90.92,-113.86 40.82,-28.97 102.66,-43.33 185.84,-43.33 191.41,0 286.97,85.65 286.97,256.94l0 463.38 104.21 0 0 27.69 -525.07 0 0 -27.69 76.38 0 0 -500.05c0,-61.54 -4.95,-101.29 -15.16,-118.98 -9.89,-18.21 -27.83,-27.18 -53.8,-27.18 -39.58,0 -74.52,21.54 -105.14,64.62 -29.99,43.08 -45.15,95.39 -45.15,156.94l0 424.65 79.48 0 0 27.69 -526.62 0 0 -27.69 101.74 0 0 -676.99 -101.74 0 0 -27.69zm1181.87 747.76l0 -275.41 22.26 0c32.16,89.24 75.45,151.81 129.88,187.97 54.42,35.64 122.45,53.59 204.39,53.59 125.86,0 188.63,-33.34 188.63,-99.75 0,-28.98 -15.46,-50.52 -46.07,-64.62 -48.24,-22.82 -110.09,-40.52 -185.85,-52.57 -83.8,-18.21 -154.3,-42.82 -211.51,-73.86 -67.72,-36.92 -101.73,-95.39 -101.73,-175.4 0,-80 29.68,-143.85 88.75,-191.55 59.37,-47.95 138.53,-71.8 237.79,-71.8 60.61,0 123.07,12.05 187.39,35.9 23.81,7.95 41.75,12.05 54.12,12.05 12.36,0 22.88,-3.59 31.23,-10.51 8.66,-7.44 19.17,-20.78 31.54,-40.26l20.41 0 0 235.4 -22.27 0c-63.08,-133.6 -160.79,-200.27 -292.83,-200.27 -58.45,0 -101.74,8.46 -130.19,25.64 -28.14,17.18 -42.36,38.47 -42.36,63.85 0,15.13 4.33,27.19 12.68,36.16 8.65,8.72 15.46,15.13 20.1,19.49 5.25,3.84 13.29,8.21 24.12,13.08 11.13,4.61 20.4,8.2 28.13,10.51 7.73,2.57 19.18,5.9 34.33,10.26 15.46,3.85 26.9,6.41 34.63,7.44 83.8,17.69 144.41,32.82 181.52,45.38 37.11,12.82 72.36,28.47 105.45,46.93 68.33,38.72 102.35,101.81 102.35,188.74 0,86.67 -30.92,152.32 -92.77,196.68 -61.84,44.62 -146.57,66.93 -254.18,66.93 -76.69,0 -150.9,-14.87 -222.65,-44.62 -14.84,-8.46 -26.59,-12.56 -35.56,-12.56 -26.9,0 -53.49,18.97 -79.47,57.18l-22.26 0zm3499.21 -429.27c0,-105.65 -6.19,-176.68 -18.56,-213.1 -12.37,-36.67 -36.49,-54.87 -72.36,-54.87 -35.56,0 -67.72,18.46 -96.48,55.64 -28.44,36.67 -42.67,87.45 -42.67,152.07l0 286.43c0,43.86 10.82,81.3 32.16,112.32 21.65,30.78 52.57,46.16 92.77,46.16 40.51,0 68.03,-22.57 82.87,-67.7 14.84,-45.13 22.27,-124.11 22.27,-236.94l0 -80.01zm-230.07 -740.07l0 538.77c47,-88.47 127.4,-132.83 241.51,-132.83 231.3,0 346.95,127.7 346.95,383.37 0,130.01 -31.85,225.91 -95.55,287.72 -63.7,61.54 -159.25,92.31 -286.96,92.31 -64.32,0 -113.49,-8.21 -147.5,-24.36 -34.33,-16.67 -57.21,-43.85 -69.27,-81.8l-13.3 90.77 -423.02 0 0 -27.69 102.04 0 0 -1098.56 -102.04 0 0 -27.7 447.14 0zm1131.77 1169.34c-159.56,0 -279.23,-34.11 -359.32,-102.06 -79.78,-68.47 -119.67,-163.35 -119.67,-284.9 0,-121.8 44.84,-214.89 134.51,-279.51 89.68,-64.62 203.78,-96.93 342.63,-96.93 280.77,0 415.6,116.93 404.46,351.06l-523.21 0 0 60c0,100.27 15.46,176.17 46.08,227.71 31.23,51.29 85.03,76.93 161.72,76.93 143.48,0 237.49,-63.59 282.02,-190.78l33.39 4.36c-23.5,74.1 -65.86,131.55 -127.4,172.58 -60.91,41.03 -152.76,61.54 -275.21,61.54zm-118.74 -443.12l191.1 0 0 -75.13c0,-83.34 -5.88,-140.02 -17.63,-170.27 -11.75,-30.26 -35.25,-45.39 -70.81,-45.39 -34.94,0 -60.92,16.15 -77.93,48.46 -16.38,32.31 -24.73,87.96 -24.73,167.2l0 75.13zm1033.43 65.91l53.81 0 0 -118.22c0,-97.44 -6.5,-162.84 -19.49,-196.17 -12.98,-33.34 -38.03,-50.01 -75.14,-50.01 -22.26,0 -42.36,4.88 -60.61,14.88 -17.93,9.74 -26.9,23.08 -26.9,40 0,16.67 3.71,33.85 11.44,51.29l46.08 0c10.2,21.54 15.15,47.44 15.15,77.7 0,30.26 -15.46,56.41 -46.69,78.47 -30.62,22.05 -69.58,33.08 -116.58,33.08 -106.68,0 -159.87,-42.57 -159.87,-127.71 0,-126.42 129.26,-189.5 387.77,-189.5 147.5,0 249.23,20.77 305.51,62.57 56.59,41.54 84.73,117.7 84.73,228.22l0 312.59c0,53.34 17.63,80.01 53.19,80.01 42.36,0 67.1,-52.82 74.52,-158.47l27.83 1.54c-4.94,90.52 -25.35,152.57 -61.53,186.17 -35.56,33.85 -94.32,50.77 -176.26,50.77 -148.12,0 -233.47,-37.95 -255.73,-113.86 -16.08,39.24 -40.2,67.96 -72.67,86.42 -31.85,18.21 -78.85,27.44 -140.7,27.44 -183.06,0 -274.59,-62.06 -274.59,-186.43 0,-72.57 34.94,-122.32 104.52,-149.75 70.19,-27.44 177.49,-41.03 322.21,-41.03zm-74.21 189.5c0,53.34 3.4,87.7 9.89,103.09 7.11,15.38 20.1,23.08 38.96,23.08 19.49,0 37.42,-13.08 53.81,-39.24 17.01,-26.16 25.36,-62.31 25.36,-108.47l0 -143.09 -12.99 0c-76.69,0 -115.03,46.67 -115.03,140.01l0 24.62zm1714.35 172.32l-423.02 0 -20.41 -112.31c-19.48,41.03 -48.86,72.57 -87.82,94.62 -38.96,22.05 -96.79,33.08 -173.48,33.08 -192.03,0 -287.89,-85.65 -287.89,-256.95l0 -463.12 -104.21 0 0 -27.69 449.62 0 0 527.74c0,61.55 4.95,102.06 15.15,121.55 10.82,19.75 31.85,29.49 63.08,29.49 31.85,0 59.99,-15.9 84.73,-47.95 24.74,-31.8 37.11,-75.91 37.11,-132.58l0 -470.56 -85.04 0 0 -27.69 430.13 0 0 704.68 102.05 0 0 27.69zm129.87 -220.02l0 -484.66 -102.35 0 0 -27.69 102.35 0 0 -198.48 345.41 -70.52 0 269 240.89 0 0 27.69 -240.89 0 0 518.26c0,48.46 5.57,83.85 17.01,106.42 11.75,22.56 36.18,33.85 73.59,33.85 37.11,0 69.58,-15.39 97.1,-46.16 28.14,-31.03 46.69,-73.08 55.04,-126.42l31.54 3.59c-9.89,70.51 -37.1,126.67 -81.94,168.22 -44.22,41.54 -117.82,62.31 -220.48,62.31 -102.66,0 -181.21,-16.92 -235.63,-50.77 -54.42,-33.6 -81.64,-95.14 -81.64,-184.64zm610.11 -484.66l0 -27.69 538.36 0 0 27.69 -100.19 0 202.55 510.82 214.91 -510.82 -124.31 0 0 -27.69 261.61 0 0 27.69 -92.77 0 -346.95 829.31c-40.82,96.42 -86.59,163.86 -137.3,202.07 -50.72,38.72 -112.56,57.96 -185.85,57.96 -72.67,0 -130.18,-13.85 -172.55,-41.8 -41.74,-27.44 -62.77,-62.83 -62.77,-105.91 0,-43.08 13.61,-75.9 40.82,-98.22 26.9,-22.56 62.77,-33.84 107.61,-33.84 102.66,0 154,35.38 154,105.9 0,15.65 -3.72,34.11 -11.14,55.65l-64.94 0c-9.89,23.34 -11.13,42.82 -4.02,58.21 7.74,15.39 24.43,23.08 50.41,23.08 50.71,0 95.86,-20.77 135.44,-62.31 39.27,-41.55 77,-104.88 113.18,-190.02l40.82 -95.4 -163.27 0 -317.58 -704.68 -76.07 0zm-6033.32 60.01c29.38,-18.98 51.02,-38.98 64.63,-60.01 13.6,-21.02 20.41,-44.61 20.41,-70.52 0,-37.18 -10.83,-65.9 -32.47,-86.41 -21.96,-20.52 -52.26,-30.77 -91.53,-30.77 -32.78,0 -59.37,8.2 -79.48,24.36 -20.09,16.15 -30.3,37.43 -30.3,63.33 0,29.49 11.44,56.68 34.02,81.3 22.57,24.36 60.91,50.77 114.72,78.72zm157.39 446.45c-40.5,-60.77 -86.58,-116.16 -138.84,-166.17 -52.26,-50 -111.01,-95.39 -176.26,-135.91 -46.69,26.93 -80.7,55.13 -102.35,84.37 -21.96,29.49 -32.78,61.8 -32.78,97.44 0,60.01 22.89,110.78 68.65,152.07 45.46,41.28 101.74,62.06 168.84,62.06 39.27,0 76.38,-7.7 111.32,-23.34 34.94,-15.64 68.96,-38.98 101.42,-70.52zm40.82 75.14c-55.35,46.92 -115.65,82.31 -180.58,106.16 -64.94,23.85 -133.9,35.65 -207.19,35.65 -104.2,0 -188.63,-24.88 -252.63,-74.37 -64.02,-49.49 -96.17,-114.63 -96.17,-195.4 0,-63.09 25.97,-118.99 77.92,-167.46 51.95,-48.46 131.11,-90.52 237.49,-126.16 -49.48,-39.49 -85.35,-75.39 -107.3,-107.7 -21.96,-32.31 -33.09,-64.62 -33.09,-96.68 0,-59.75 30.3,-109.49 90.6,-149.5 60.3,-40 136.99,-60 230.07,-60 89.36,0 159.56,15.64 210.58,46.92 51.02,31.29 76.69,74.11 76.69,128.73 0,36.16 -13.92,69.75 -41.44,101.04 -27.52,31.28 -69.26,60.52 -125.23,87.7 54.73,37.95 102.97,76.41 144.71,115.14 41.75,38.72 79.17,80 111.63,123.6 53.5,-67.96 92.15,-122.07 115.35,-162.33 23.19,-40 34.94,-72.05 34.94,-96.16 0,-8.46 -6.19,-14.36 -18.25,-17.95 -12.06,-3.33 -33.08,-5.13 -63.39,-5.13l-22.57 0 1.85 -67.7 382.21 0 1.85 64.63c-43.6,0 -77.92,3.59 -103.59,10.77 -25.66,7.43 -46.69,18.97 -63.08,35.13 -0.62,0.51 -21.95,34.1 -64.32,100.52 -42.36,66.67 -90.29,132.83 -144.1,198.48l48.24 68.98c35.56,53.08 64.32,88.47 86.89,105.91 22.27,17.69 46.7,26.41 73.29,26.41 14.53,0 30.92,-2.82 49.48,-8.21 18.24,-5.64 39.58,-14.1 63.7,-25.64l34.63 57.19c-42.36,30.51 -85.96,53.08 -131.11,68.21 -44.84,15.13 -92.15,22.56 -141.63,22.56 -54.42,0 -102.97,-11.02 -145.33,-33.08 -42.68,-22.05 -86.28,-58.72 -131.12,-110.26z"/>
   <line class="fil2 str0" x1="3828.35" y1="14268.51" x2="25870.59" y2= "14268.51" />
  </g>
 </g>
</svg>
